#!OML:ASF E:\I on waltz\Acrobat_Osman\acrobat\cartwheel_test 2\Patient 1\Session 1\acrobat.ASF
:FULLY-SPECIFIED
:DEGREES
102
root 6.10681 16.1017 10.6008 -502.991 5.83452 181.617
lowerback 32.3176 -0.874187 -1.67224
upperback 13.9402 2.15868 1.77448
thorax -1.82926 2.22674 2.19552
lowerneck -12.3716 -4.31091 -3.81459
upperneck 18.3493 -4.28317 -1.72154
head 7.75701 -2.32303 -0.359259
rclavicle -3.89618e-014 -4.31363e-014
rhumerus -30.6122 4.30975 -78.4724
rradius 38.1048
rwrist -17.842
rhand -23.2301 27.4075
rfingers 7.12502
rthumb 3.22089 -2.54794
lclavicle -3.89618e-014 -4.31363e-014
lhumerus -26.0486 -4.64798 81.8383
lradius 44.5559
lwrist 45.1687
lhand -13.621 42.3357
lfingers 7.12502
lthumb 12.4945 71.9422
rfemur -76.2723 1.00796 26.07
rtibia 74.7153
rfoot -1.05077 -6.99064
rtoes -24.7193
lfemur -78.3842 -0.362295 -23.5213
ltibia 82.0806
lfoot -175.425 184.927
ltoes -28.7816
103
root 6.09511 16.1803 10.5085 -504.133 6.28253 181.629
lowerback 31.9854 -0.616463 -2.18521
upperback 13.9986 2.34227 1.66132
thorax -1.62706 2.30439 2.3174
lowerneck -12.5654 -4.27868 -3.86365
upperneck 17.9297 -4.33022 -1.42557
head 7.66046 -2.3291 -0.259453
rclavicle -5.1684e-015 4.27387e-015
rhumerus -30.6169 3.04817 -78.8277
rradius 36.287
rwrist -16.9374
rhand -23.3778 27.4953
rfingers 7.12502
rthumb 3.07827 -2.46226
lclavicle -5.1684e-015 4.27387e-015
lhumerus -24.7584 -3.55556 81.172
lradius 42.2622
lwrist 44.136
lhand -14.6271 42.6825
lfingers 7.12502
lthumb 11.5243 72.3457
rfemur -74.5986 2.08652 26.3479
rtibia 71.2611
rfoot -2.61309 -4.45548
rtoes -26.8383
lfemur -77.4558 -0.40194 -23.4668
ltibia 80.5407
lfoot -179.037 185.52
ltoes -27.1879
104
root 6.07553 16.1895 10.4771 -504.161 6.36415 181.486
lowerback 31.1459 -0.469247 -2.39801
upperback 13.7316 2.32903 1.65097
thorax -1.57358 2.24582 2.44582
lowerneck -12.9405 -4.27681 -3.95893
upperneck 17.7834 -4.35597 -1.23691
head 7.68555 -2.33643 -0.192206
rclavicle 1.2921e-014 -1.38652e-014
rhumerus -29.9469 1.3933 -78.926
rradius 34.0297
rwrist -15.3344
rhand -23.678 27.1807
rfingers 7.12502
rthumb 2.78838 -2.7808
lclavicle 1.2921e-014 -1.38652e-014
lhumerus -23.0947 -2.9718 80.6569
lradius 39.7807
lwrist 42.5924
lhand -15.6572 43.3467
lfingers 7.12502
lthumb 10.5308 73.0629
rfemur -74.5019 3.25132 25.9113
rtibia 67.2733
rfoot -3.21182 -2.42328
rtoes -27.2305
lfemur -77.8067 -1.01002 -22.9095
ltibia 77.6053
lfoot -181.792 186.224
ltoes -26.1273
105
root 6.0512 16.1852 10.4226 -504.785 6.22989 181.165
lowerback 30.8665 -0.514804 -2.35725
upperback 13.606 2.24117 1.63068
thorax -1.59025 2.19745 2.42999
lowerneck -13.3068 -4.32661 -4.11186
upperneck 17.7831 -4.39817 -1.161
head 7.75704 -2.36238 -0.155432
rclavicle -6.75868e-015 4.32357e-015
rhumerus -29.1107 -0.374498 -78.8342
rradius 31.8198
rwrist -13.3035
rhand -23.8384 27.0539
rfingers 7.12502
rthumb 2.63346 -2.90961
lclavicle -6.75868e-015 4.32357e-015
lhumerus -21.2435 -2.97967 80.3378
lradius 37.3947
lwrist 40.7776
lhand -16.6209 43.9613
lfingers 7.12502
lthumb 9.60109 73.7225
rfemur -73.4193 4.30186 24.6501
rtibia 63.1996
rfoot -3.87969 -2.50673
rtoes -26.8209
lfemur -76.8387 -1.86517 -22.1829
ltibia 73.5408
lfoot -183.313 187.497
ltoes -26.0007
106
root 6.02608 16.1117 10.3399 -505.274 6.40486 180.885
lowerback 29.7856 -0.460586 -2.54058
upperback 13.6445 2.22607 1.66257
thorax -1.07121 2.1604 2.60704
lowerneck -13.9619 -4.37229 -4.53191
upperneck 18.2342 -4.29472 -1.22391
head 8.03347 -2.34679 -0.116105
rclavicle -1.47101e-014 1.00386e-014
rhumerus -28.001 -1.70286 -78.505
rradius 29.6269
rwrist -11.0127
rhand -23.8711 27.4264
rfingers 7.12502
rthumb 2.60183 -2.5375
lclavicle -1.47101e-014 1.00386e-014
lhumerus -19.3648 -2.51121 80.4134
lradius 35.2067
lwrist 38.2148
lhand -17.4873 44.0595
lfingers 7.12502
lthumb 8.76515 73.8575
rfemur -72.4256 5.51307 23.0834
rtibia 59.8508
rfoot -4.04937 -4.65612
rtoes -24.8288
lfemur -75.6383 -2.20283 -21.7567
ltibia 69.3272
lfoot -183.563 188.369
ltoes -27.2585
107
root 6.00354 15.9792 10.2518 -506.316 6.58387 179.949
lowerback 29.1174 -0.314421 -2.8585
upperback 13.6332 2.31164 1.41499
thorax -0.783738 2.19273 2.51112
lowerneck -14.0897 -4.5265 -4.40043
upperneck 18.5793 -4.51049 -1.19864
head 8.17195 -2.43604 -0.159957
rclavicle -2.50469e-014 -1.02374e-014
rhumerus -27.1086 -3.68146 -78.3224
rradius 27.7347
rwrist -8.56108
rhand -23.9402 27.6562
rfingers 7.12502
rthumb 2.53513 -2.30845
lclavicle -2.50469e-014 -1.02374e-014
lhumerus -17.6913 -5.13238 79.8125
lradius 34.1308
lwrist 37.9445
lhand -18.2724 44.3368
lfingers 7.12502
lthumb 8.00739 74.1651
rfemur -71.0517 5.9425 21.2516
rtibia 57.8558
rfoot -2.74977 -5.94745
rtoes -24.7336
lfemur -73.6712 -2.40844 -22.4712
ltibia 65.492
lfoot -183.5 187.007
ltoes -28.6235
108
root 5.98104 15.7709 10.1671 -507.669 6.04671 179.881
lowerback 28.1308 -0.481481 -2.35926
upperback 13.6527 2.22596 1.56588
thorax -0.316373 2.16436 2.44457
lowerneck -13.5889 -4.5367 -4.62636
upperneck 18.815 -4.47387 -1.12396
head 8.16968 -2.41635 -0.0846663
rclavicle 1.43125e-014 6.16232e-015
rhumerus -26.3673 -4.13268 -78.2311
rradius 26.3436
rwrist -6.76685
rhand -24.0593 27.6844
rfingers 7.12502
rthumb 2.42007 -2.28161
lclavicle 1.43125e-014 6.16232e-015
lhumerus -16.7083 -6.2164 79.7152
lradius 33.5777
lwrist 37.0648
lhand -18.9932 44.4807
lfingers 7.12502
lthumb 7.31176 74.3344
rfemur -69.531 6.01103 21.0455
rtibia 57.571
rfoot -2.40595 -5.95138
rtoes -23.801
lfemur -71.8373 -2.07808 -22.4661
ltibia 63.0722
lfoot -183.268 184.471
ltoes -28.3063
109
root 5.94824 15.4822 10.0626 -509.701 5.61862 179.37
lowerback 27.4318 -0.758442 -2.46456
upperback 13.601 1.83354 1.77264
thorax -0.0387778 1.95478 2.85424
lowerneck -13.3154 -4.49767 -5.08692
upperneck 19.9293 -4.12908 -1.43863
head 8.49955 -2.29474 -0.0785309
rclavicle -7.95139e-016 1.03368e-014
rhumerus -25.9566 -2.6959 -78.2327
rradius 25.6725
rwrist -6.02164
rhand -24.1511 27.6669
rfingers 7.12502
rthumb 2.33147 -2.30013
lclavicle -7.95139e-016 1.03368e-014
lhumerus -16.7188 -5.55742 80.3481
lradius 33.6894
lwrist 35.4256
lhand -19.6534 44.5364
lfingers 7.12502
lthumb 6.67438 74.4112
rfemur -67.0317 5.17185 21.247
rtibia 59.0035
rfoot -6.07137 -5.42314
rtoes -21.9799
lfemur -69.1093 -1.49909 -23.5308
ltibia 62.2785
lfoot -183.395 183.471
ltoes -28.3657
110
root 5.9106 15.1034 10.0187 -511.139 4.8164 178.784
lowerback 26.1629 -0.993558 -2.05265
upperback 13.1877 1.46199 1.83261
thorax 0.0973066 1.74028 2.7924
lowerneck -13.1809 -4.62694 -4.83665
upperneck 21.301 -4.12117 -1.81943
head 8.9302 -2.28786 -0.255251
rclavicle 3.97569e-016 1.66979e-014
rhumerus -26.1088 -1.8255 -78.5013
rradius 25.8503
rwrist -5.78635
rhand -24.0801 27.6251
rfingers 7.12502
rthumb 2.4 -2.34112
lclavicle 3.97569e-016 1.66979e-014
lhumerus -16.8923 -7.0131 80.4884
lradius 34.4362
lwrist 35.6581
lhand -19.8686 44.2154
lfingers 7.12502
lthumb 6.46666 74.0966
rfemur -66.1845 3.84548 21.6959
rtibia 61.8996
rfoot -11.0376 -5.49873
rtoes -20.8075
lfemur -67.4598 -0.830361 -25.0346
ltibia 63.6852
lfoot -189.203 181.735
ltoes -27.3495
